<?xml version="1.0" encoding="UTF-8"?>
<svg version="1.1" xmlns="http://www.w3.org/2000/svg" width="534" height="534">
<path d="M0 0 C3.83361589 3.13053961 6.2725965 6.47000877 8.8984375 10.65234375 C11.18734255 14.22178483 11.18734255 14.22178483 14.828125 16.1015625 C17.07004029 16.32002389 19.21274203 16.31855304 21.4609375 16.27734375 C22.1209375 16.60734375 22.7809375 16.93734375 23.4609375 17.27734375 C23.4609375 24.53734375 23.4609375 31.79734375 23.4609375 39.27734375 C21.8109375 39.60734375 20.1609375 39.93734375 18.4609375 40.27734375 C18.48414063 41.59605469 18.50734375 42.91476563 18.53125 44.2734375 C18.63697799 53.09842091 18.61395713 61.76618678 17.4609375 70.52734375 C17.32679443 71.57619751 17.32679443 71.57619751 17.18994141 72.64624023 C16.94829128 74.52344917 16.70469547 76.40040736 16.4609375 78.27734375 C15.47093882 86.15233324 17.6573553 90.05649996 22.4609375 96.27734375 C25.09054649 99.13831033 27.88679408 101.79752707 30.7109375 104.46484375 C49.56220809 122.84473142 61.36252937 144.67955936 61.75390625 171.50634766 C61.89408607 199.91729213 55.69032725 229.74134092 35.515625 251.21484375 C34.15665949 253.32785858 34.15665949 253.32785858 35.1015625 256.08203125 C35.77445312 257.66371094 35.77445312 257.66371094 36.4609375 259.27734375 C36.91210938 260.41429687 37.36328125 261.55125 37.828125 262.72265625 C38.32570313 263.93695313 38.82328125 265.15125 39.3359375 266.40234375 C46.4609375 284.03114209 46.4609375 284.03114209 46.4609375 290.27734375 C47.20214844 290.35210937 47.94335938 290.426875 48.70703125 290.50390625 C69.56801275 293.10833723 91.79645254 302.52085877 105.6171875 318.8203125 C114.26635077 330.63961401 116.6176633 341.8597012 115.4609375 356.27734375 C113.03018725 369.7471063 104.09016189 380.14650451 93.4609375 388.27734375 C89.24401749 391.13826755 84.87742803 393.73682334 80.4609375 396.27734375 C81.13447266 396.34727539 81.80800781 396.41720703 82.50195312 396.48925781 C118.19953142 400.27315244 118.19953142 400.27315244 126.4609375 406.27734375 C127.5234375 409.21484375 127.5234375 409.21484375 127.4609375 412.27734375 C124.15950319 416.80554053 119.34443759 418.13641559 114.2734375 419.96484375 C112.6333414 420.57082813 110.99397607 421.17879531 109.35546875 421.7890625 C108.63206299 422.05162842 107.90865723 422.31419434 107.16333008 422.5847168 C105.45921179 423.14957157 105.45921179 423.14957157 104.4609375 424.27734375 C103.69183036 426.60217231 103.69183036 426.60217231 104.4609375 429.27734375 C106.952473 431.35589541 109.78226305 432.77746505 112.6484375 434.27734375 C122.75151519 439.69726808 122.75151519 439.69726808 126.4609375 444.27734375 C127.29158754 447.26112612 126.87016089 449.10586248 126.4609375 452.27734375 C124.64930483 454.95165864 123.58332673 455.23654734 120.4609375 456.27734375 C113.54837835 456.78718945 107.05317741 455.96947794 100.265625 454.7265625 C95.48457445 453.96079535 91.1080435 453.72830842 86.4609375 455.27734375 C84.21631271 459.9910558 84.59160489 463.23521463 85.4609375 468.27734375 C85.861804 472.16210455 86.03044526 475.28689548 84.0234375 478.77734375 C79.08949489 481.66550528 74.59305554 480.77440194 69.27734375 479.53515625 C53.01896198 474.65586096 37.45640128 466.1741612 24.4609375 455.27734375 C22.45609093 460.2508165 20.47004146 465.22898073 18.56640625 470.2421875 C8.38498928 496.81531786 8.38498928 496.81531786 -2.5390625 502.27734375 C-8.82991217 502.84923917 -8.82991217 502.84923917 -11.4765625 500.71484375 C-13.84955529 495.27091911 -12.32741212 490.0140186 -10.984375 484.5 C-10.35555012 481.36139158 -10.40327175 478.46842647 -10.5390625 475.27734375 C-12.6444354 474.27888714 -12.6444354 474.27888714 -15.5390625 474.27734375 C-18.414913 475.70328307 -20.91196587 477.60806345 -23.4765625 479.52734375 C-36.95341435 489.36758478 -36.95341435 489.36758478 -45.5390625 488.27734375 C-48.6015625 486.33984375 -48.6015625 486.33984375 -50.5390625 483.27734375 C-51.81664612 474.66228665 -45.96068684 466.51143245 -41.1015625 459.90234375 C-39.24894506 457.37127098 -39.24894506 457.37127098 -39.7890625 454.40234375 C-40.0365625 453.70109375 -40.2840625 452.99984375 -40.5390625 452.27734375 C-47.53086809 452.02309627 -54.08583764 453.03396934 -60.9765625 454.15234375 C-103.52918506 460.6147348 -147.72155099 460.57331304 -190.328125 454.3046875 C-191.35719971 454.15362549 -192.38627441 454.00256348 -193.4465332 453.84692383 C-195.30528867 453.56246348 -197.16118326 453.25815861 -199.01245117 452.9284668 C-203.92938459 452.12649855 -203.92938459 452.12649855 -208.61328125 453.70703125 C-209.56654297 454.48433594 -209.56654297 454.48433594 -210.5390625 455.27734375 C-208.81735901 459.83479415 -206.70689692 463.60803589 -203.9765625 467.65234375 C-200.96013381 472.3210837 -198.56108957 476.60537316 -198.5390625 482.27734375 C-200.49558424 487.75560462 -200.49558424 487.75560462 -203.5390625 489.27734375 C-214.37714968 490.67580661 -221.63611352 484.42795589 -230.0390625 478.27734375 C-230.8125 477.67921875 -231.5859375 477.08109375 -232.3828125 476.46484375 C-234.46874158 475.03653471 -234.46874158 475.03653471 -236.8203125 475.58984375 C-237.3875 475.81671875 -237.9546875 476.04359375 -238.5390625 476.27734375 C-238.70926936 480.87292894 -238.5010932 484.84978637 -237.4765625 489.33984375 C-236.52148071 493.73592946 -236.44711184 496.9095411 -237.5390625 501.27734375 C-239.5390625 503.27734375 -239.5390625 503.27734375 -243.2265625 503.71484375 C-248.08694403 503.52217998 -251.24193768 501.79186142 -254.5390625 498.27734375 C-264.40885928 485.57621133 -269.89343229 468.77971568 -273.5390625 453.27734375 C-274.57160156 453.94378906 -275.60414063 454.61023438 -276.66796875 455.296875 C-317.22609934 481.02309835 -317.22609934 481.02309835 -337.5859375 480.74609375 C-340.09830638 480.14312522 -340.93430968 479.28602927 -342.5390625 477.27734375 C-342.84790039 475.24023437 -342.84790039 475.24023437 -342.76171875 472.93359375 C-342.73368164 471.68255859 -342.73368164 471.68255859 -342.70507812 470.40625 C-342.67091797 469.53871094 -342.63675781 468.67117188 -342.6015625 467.77734375 C-342.54155709 466.05889106 -342.49040052 464.34010054 -342.44921875 462.62109375 C-342.41965088 461.85990234 -342.39008301 461.09871094 -342.35961914 460.31445312 C-342.40273209 457.96232658 -342.40273209 457.96232658 -344.5390625 455.27734375 C-349.79711561 454.17484874 -353.96106154 454.22800287 -359.2265625 455.21484375 C-375.171875 458.15859375 -375.171875 458.15859375 -381.5703125 455.40234375 C-384.18347183 453.19567587 -384.54401618 451.22384401 -384.8515625 447.90234375 C-381.94517664 439.87518281 -374.23749778 436.29235498 -366.95703125 432.63671875 C-364.6664834 431.34897941 -363.05410232 430.42497915 -361.5390625 428.27734375 C-361.51334697 426.17155991 -361.51334697 426.17155991 -362.5390625 424.27734375 C-367.80344636 421.15770887 -373.32033108 419.21100302 -379.12109375 417.3046875 C-381.60264794 416.25032764 -382.92464631 415.42281789 -384.5390625 413.27734375 C-384.7265625 410.08984375 -384.7265625 410.08984375 -384.5390625 407.27734375 C-378.20372484 403.88867477 -373.42496848 403.15024126 -366.26953125 403.1796875 C-365.58852859 403.18110245 -364.90752594 403.1825174 -364.20588684 403.18397522 C-362.04606603 403.18954077 -359.88635161 403.20208672 -357.7265625 403.21484375 C-356.25586088 403.21986321 -354.78515762 403.22442534 -353.31445312 403.22851562 C-349.7226221 403.23949887 -346.1308527 403.25673953 -342.5390625 403.27734375 C-343.91578125 402.42462891 -343.91578125 402.42462891 -345.3203125 401.5546875 C-360.78258315 391.87759147 -373.32090188 380.75799324 -378.3203125 362.41015625 C-380.86882339 349.7682009 -379.64956414 338.46830943 -372.84765625 327.56640625 C-359.15318013 307.37051218 -334.5080063 298.19385752 -311.5390625 293.27734375 C-306.74820575 292.37429364 -302.39661989 292.19359276 -297.5390625 292.27734375 C-297.3534375 291.36082031 -297.3534375 291.36082031 -297.1640625 290.42578125 C-294.50509235 278.62660122 -290.45307495 266.60752333 -285.30786133 255.65698242 C-285.05415771 254.87170166 -284.8004541 254.0864209 -284.5390625 253.27734375 C-286.03028662 250.90892897 -287.44229979 249.0876273 -289.2890625 247.02734375 C-307.84365239 224.79913451 -317.56698199 197.76716507 -315.2578125 168.7421875 C-312.75621306 145.86698494 -303.34090806 127.10708515 -289.91796875 108.671875 C-289.47114746 108.05521973 -289.02432617 107.43856445 -288.56396484 106.80322266 C-287.70061685 105.61647377 -286.83031262 104.43474003 -285.95166016 103.25927734 C-282.0686248 97.95428538 -278.83256188 92.87373085 -279.7265625 86.08984375 C-279.84386719 85.14625 -279.96117187 84.20265625 -280.08203125 83.23046875 C-280.69768551 79.25239507 -281.37495698 75.28651218 -282.0625 71.3203125 C-283.64711971 61.20212602 -284.66499035 50.37550102 -282.5390625 40.27734375 C-284.1890625 39.94734375 -285.8390625 39.61734375 -287.5390625 39.27734375 C-287.5390625 32.01734375 -287.5390625 24.75734375 -287.5390625 17.27734375 C-285.25517936 16.13540218 -283.7006959 16.11232244 -281.1640625 15.96484375 C-277.52306519 15.57512819 -277.52306519 15.57512819 -274.4140625 13.71484375 C-273.7953125 12.91046875 -273.1765625 12.10609375 -272.5390625 11.27734375 C-265.8714106 3.36056213 -259.85480254 -2.26909393 -250.6015625 -6.97265625 C-249.93326416 -7.31425781 -249.26496582 -7.65585937 -248.57641602 -8.0078125 C-236.60932494 -13.86805366 -221.82723197 -15.11488226 -209.0390625 -11.09765625 C-197.02728416 -6.31302031 -186.79430566 0.32088769 -178.3515625 10.15234375 C-173.15988888 15.4440321 -167.77499121 15.83630335 -160.58789062 16.17871094 C-158.54052707 16.27727324 -156.50377981 16.43083388 -154.4609375 16.59765625 C-137.82585064 17.8750143 -121.40543865 17.35802187 -104.78955078 15.98901367 C-99.3516785 15.54110913 -93.99594233 15.15117312 -88.5390625 15.27734375 C-88.14847656 14.43236328 -88.14847656 14.43236328 -87.75 13.5703125 C-81.09220943 0.9634639 -69.61760231 -7.14815877 -56.44921875 -11.84765625 C-36.85387835 -17.73940961 -16.43854944 -11.15292354 0 0 Z " fill="#B6CF19" transform="translate(394.5390625,23.72265625)"/>
<path d="M0 0 C3.83361589 3.13053961 6.2725965 6.47000877 8.8984375 10.65234375 C11.18734255 14.22178483 11.18734255 14.22178483 14.828125 16.1015625 C17.07004029 16.32002389 19.21274203 16.31855304 21.4609375 16.27734375 C22.1209375 16.60734375 22.7809375 16.93734375 23.4609375 17.27734375 C23.4609375 24.53734375 23.4609375 31.79734375 23.4609375 39.27734375 C20.8209375 40.26734375 18.1809375 41.25734375 15.4609375 42.27734375 C12.4526897 45.28559155 13.12080307 48.73528181 13.0234375 52.77734375 C12.21587216 72.57116561 9.72185145 91.10459932 -5.5390625 105.27734375 C-17.46142418 115.84850444 -35.17630945 118.19274095 -50.5390625 117.27734375 C-71.01384477 115.98200038 -89.75298916 110.38137808 -104.25 95.125 C-112.10741219 85.3501647 -114.89000093 74.21695303 -117.5390625 62.27734375 C-119.45422231 54.25825213 -121.44795685 50.00474752 -128.5390625 45.27734375 C-132.61071733 44.81640169 -135.00177824 45.0245041 -138.7265625 46.77734375 C-144.64799082 52.04083559 -146.09378478 58.8486941 -147.3515625 66.40234375 C-150.34090959 82.02757733 -157.44147894 94.44865955 -170.3515625 104.08984375 C-175.75575862 107.65627752 -181.4883687 110.03112729 -187.5390625 112.27734375 C-188.61027344 112.72400391 -188.61027344 112.72400391 -189.703125 113.1796875 C-206.80720179 119.81659761 -230.19849046 119.15947668 -247.01171875 112.46875 C-260.86946433 105.93611878 -268.00912037 96.05258865 -273.2890625 81.90234375 C-276.36551708 71.76814043 -276.83115837 61.10583245 -277.02197266 50.58642578 C-277.0429085 46.40677081 -277.0429085 46.40677081 -278.62915039 42.6550293 C-281.14572606 40.67533771 -281.14572606 40.67533771 -287.5390625 39.27734375 C-287.5390625 32.01734375 -287.5390625 24.75734375 -287.5390625 17.27734375 C-285.25517936 16.13540218 -283.7006959 16.11232244 -281.1640625 15.96484375 C-277.52306519 15.57512819 -277.52306519 15.57512819 -274.4140625 13.71484375 C-273.4859375 12.50828125 -273.4859375 12.50828125 -272.5390625 11.27734375 C-265.8714106 3.36056213 -259.85480254 -2.26909393 -250.6015625 -6.97265625 C-249.59911499 -7.48505859 -249.59911499 -7.48505859 -248.57641602 -8.0078125 C-236.60932494 -13.86805366 -221.82723197 -15.11488226 -209.0390625 -11.09765625 C-197.02728416 -6.31302031 -186.79430566 0.32088769 -178.3515625 10.15234375 C-173.15988888 15.4440321 -167.77499121 15.83630335 -160.58789062 16.17871094 C-158.54052707 16.27727324 -156.50377981 16.43083388 -154.4609375 16.59765625 C-137.82585064 17.8750143 -121.40543865 17.35802187 -104.78955078 15.98901367 C-99.3516785 15.54110913 -93.99594233 15.15117312 -88.5390625 15.27734375 C-88.27867187 14.71402344 -88.01828125 14.15070312 -87.75 13.5703125 C-81.09220943 0.9634639 -69.61760231 -7.14815877 -56.44921875 -11.84765625 C-36.85387835 -17.73940961 -16.43854944 -11.15292354 0 0 Z " fill="#33200A" transform="translate(394.5390625,23.72265625)"/>
<path d="M0 0 C1.61841797 0.79083984 1.61841797 0.79083984 3.26953125 1.59765625 C10.57868572 5.33306814 16.81078512 9.63263168 23 15 C23.78632813 15.63035156 24.57265625 16.26070313 25.3828125 16.91015625 C48.24165484 35.9836919 62.77120186 66.69327551 66 96 C66.28043115 99.8982575 66.40354216 103.77971043 66.4375 107.6875 C66.44773193 108.58380127 66.45796387 109.48010254 66.46850586 110.40356445 C66.30604192 122.54064297 61.65513017 130.64893745 53.125 139 C36.8020956 152.94019856 14.55835353 156.96255614 -6 160 C-6.75635742 160.12004395 -7.51271484 160.24008789 -8.29199219 160.36376953 C-44.57368709 166.00702806 -94.54278648 165.92951326 -125.9375 144.6875 C-136.15163597 137.15535801 -141.09882797 130.08861032 -145 118 C-145.33 117.01 -145.66 116.02 -146 115 C-147.62936726 84.10468999 -138.16186643 53.77266184 -118 30 C-88.85655636 -2.37554656 -41.64344849 -20.96375511 0 0 Z " fill="#FEF59C" transform="translate(306,301)"/>
<path d="M0 0 C1.17175781 0.01353516 1.17175781 0.01353516 2.3671875 0.02734375 C2.94726562 0.03894531 3.52734375 0.05054688 4.125 0.0625 C3.6211977 4.52777929 2.98751236 8.92023087 2.15234375 13.3359375 C-5.72812869 56.37708732 1.88015205 93.97639554 19.31420898 133.78637695 C23.01321088 142.38634325 25.52150721 150.85203744 27.125 160.0625 C20.29758968 165.86519145 13.02883783 170.06891202 5.0625 174.125 C4.47016571 174.42965179 3.87783142 174.73430359 3.26754761 175.04818726 C-22.14000654 188.09897071 -22.14000654 188.09897071 -33.9375 188.3125 C-35.22333984 188.35117187 -35.22333984 188.35117187 -36.53515625 188.390625 C-39.41645838 187.98656928 -40.10562539 187.32775432 -41.875 185.0625 C-42.18383789 183.02539062 -42.18383789 183.02539062 -42.09765625 180.71875 C-42.07896484 179.88472656 -42.06027344 179.05070313 -42.04101562 178.19140625 C-42.00685547 177.32386719 -41.97269531 176.45632813 -41.9375 175.5625 C-41.87749459 173.84404731 -41.82633802 172.12525679 -41.78515625 170.40625 C-41.75558838 169.64505859 -41.72602051 168.88386719 -41.69555664 168.09960938 C-41.73866959 165.74748283 -41.73866959 165.74748283 -43.875 163.0625 C-49.13305311 161.96000499 -53.29699904 162.01315912 -58.5625 163 C-74.5078125 165.94375 -74.5078125 165.94375 -80.90625 163.1875 C-83.51940933 160.98083212 -83.87995368 159.00900026 -84.1875 155.6875 C-81.28111414 147.66033906 -73.57343528 144.07751123 -66.29296875 140.421875 C-64.0024209 139.13413566 -62.39003982 138.2101354 -60.875 136.0625 C-60.84928447 133.95671616 -60.84928447 133.95671616 -61.875 132.0625 C-67.13938386 128.94286512 -72.65626858 126.99615927 -78.45703125 125.08984375 C-80.93858544 124.03548389 -82.26058381 123.20797414 -83.875 121.0625 C-84.0625 117.875 -84.0625 117.875 -83.875 115.0625 C-77.53966234 111.67383102 -72.76090598 110.93539751 -65.60546875 110.96484375 C-64.92446609 110.9662587 -64.24346344 110.96767365 -63.54182434 110.96913147 C-61.38200353 110.97469702 -59.22228911 110.98724297 -57.0625 111 C-55.59179838 111.00501946 -54.12109512 111.00958159 -52.65039062 111.01367188 C-49.0585596 111.02465512 -45.4667902 111.04189578 -41.875 111.0625 C-42.7928125 110.49402344 -43.710625 109.92554688 -44.65625 109.33984375 C-60.11852065 99.66274772 -72.65683938 88.54314949 -77.65625 70.1953125 C-80.20476089 57.55335715 -78.98550164 46.25346568 -72.18359375 35.3515625 C-58.48911763 15.15566843 -33.8439438 5.97901377 -10.875 1.0625 C-7.18998657 0.36102649 -3.74958112 -0.05681184 0 0 Z " fill="#87A821" transform="translate(93.875,315.9375)"/>
<path d="M0 0 C21.70286668 2.41355424 44.73705051 11.53771717 59.15625 28.54296875 C67.80541327 40.36227026 70.1567258 51.58235745 69 66 C66.56924975 79.46976255 57.62922439 89.86916076 47 98 C42.78307999 100.8609238 38.41649053 103.45947959 34 106 C34.67353516 106.06993164 35.34707031 106.13986328 36.04101562 106.21191406 C71.73859392 109.99580869 71.73859392 109.99580869 80 116 C81.0625 118.9375 81.0625 118.9375 81 122 C77.69856569 126.52819678 72.88350009 127.85907184 67.8125 129.6875 C66.1724039 130.29348438 64.53303857 130.90145156 62.89453125 131.51171875 C61.80942261 131.90556763 61.80942261 131.90556763 60.70239258 132.30737305 C58.99827429 132.87222782 58.99827429 132.87222782 58 134 C57.23089286 136.32482856 57.23089286 136.32482856 58 139 C60.4915355 141.07855166 63.32132555 142.5001213 66.1875 144 C76.29057769 149.41992433 76.29057769 149.41992433 80 154 C80.83065004 156.98378237 80.40922339 158.82851873 80 162 C78.18836733 164.67431489 77.12238923 164.95920359 74 166 C67.08744085 166.5098457 60.59223991 165.69213419 53.8046875 164.44921875 C49.02363695 163.6834516 44.647106 163.45096467 40 165 C37.75537521 169.71371205 38.13066739 172.95787088 39 178 C39.4008665 181.8847608 39.56950776 185.00955173 37.5625 188.5 C32.62855739 191.38816153 28.13211804 190.49705819 22.81640625 189.2578125 C7.33894256 184.61287816 -10.40625273 176.52528026 -22 165 C-23.69007316 160.32604405 -22.08675023 156.47542078 -20.75 151.875 C-20.48767578 150.96065186 -20.22535156 150.04630371 -19.95507812 149.10424805 C-17.2962404 140.27279122 -13.71017691 131.90635393 -10.04345703 123.45556641 C5.97127827 86.45335876 9.17378902 50.68934451 2 11 C1.80889648 9.93797363 1.61779297 8.87594727 1.42089844 7.78173828 C0.95124944 5.1870725 0.47780015 2.59317512 0 0 Z " fill="#87A821" transform="translate(441,314)"/>
<path d="M0 0 C3.524723 0.62194937 6.97019386 1.49219403 10.4375 2.375 C39.74017359 9.3432144 70.19824476 9.04173372 99.3918457 1.67700195 C104.75445798 0.35304059 109.47038699 -0.38793499 115 0 C117.5 1.5625 117.5 1.5625 119 4 C119.90581502 9.88779761 118.40032973 14.27100673 115 19 C110.07259215 24.28126119 104.74631779 28.56545836 98.30078125 31.83203125 C96.40875843 32.79249784 94.57479076 33.86647221 92.76171875 34.96875 C88.84404444 37.22053415 84.83638469 38.48122483 80.5 39.6875 C79.77941406 39.89955078 79.05882812 40.11160156 78.31640625 40.33007812 C69.92565403 42.73502248 61.87870072 43.18211845 53.1875 43.1875 C51.64352539 43.20586914 51.64352539 43.20586914 50.06835938 43.22460938 C43.462268 43.23714465 37.41204164 42.57880117 31 41 C29.91332031 40.73960937 28.82664063 40.47921875 27.70703125 40.2109375 C13.26999437 36.04153684 -2.90289998 28.39938272 -10.8046875 14.921875 C-12.71187266 10.25986683 -12.87012349 6.32032932 -11.0625 1.5 C-7.7243756 -0.92772684 -3.9566112 -0.30709145 0 0 Z " fill="#865B50" transform="translate(209,163)"/>
<path d="M0 0 C4.80076536 3.93205544 8.48889207 8.78001862 11.42578125 14.2421875 C11.42578125 14.9021875 11.42578125 15.5621875 11.42578125 16.2421875 C10.57567978 16.17113297 9.72557831 16.10007843 8.84971619 16.02687073 C-1.98911859 15.20418544 -12.7668693 15.11240754 -23.6328125 15.14453125 C-25.51709454 15.14640138 -27.40137708 15.14782246 -29.28565979 15.14881897 C-34.19277338 15.15259735 -39.09985634 15.16238641 -44.00695801 15.17352295 C-49.03523342 15.18383893 -54.06351388 15.18833819 -59.09179688 15.19335938 C-68.91928413 15.20401393 -78.74674887 15.22103252 -88.57421875 15.2421875 C-82.01538384 1.76879027 -70.37473573 -6.92565774 -56.484375 -11.8828125 C-36.89854482 -17.77170641 -16.4077975 -11.20411058 0 0 Z " fill="#B6CF19" transform="translate(394.57421875,23.7578125)"/>
<path d="M0 0 C5.8956472 4.57640515 11.39284139 9.61821879 16.40625 15.15234375 C16.40625 15.48234375 16.40625 15.81234375 16.40625 16.15234375 C15.34739594 16.15012314 14.28854187 16.14790253 13.19760132 16.14561462 C3.16555353 16.12524664 -6.86648999 16.11030628 -16.89855385 16.10053158 C-22.05477391 16.09533722 -27.21097713 16.08830298 -32.3671875 16.0769043 C-37.35333799 16.06595191 -42.3394724 16.06004103 -47.325634 16.05746651 C-49.21758655 16.05563433 -51.10953832 16.05205713 -53.00148392 16.04661369 C-63.5863035 16.01740087 -74.04437638 16.18385709 -84.59375 17.15234375 C-82.52022842 11.72950187 -79.58477027 8.31652812 -75.59375 4.15234375 C-75.11421875 3.63542969 -74.6346875 3.11851563 -74.140625 2.5859375 C-70.18367465 -1.2356435 -65.51847052 -3.62611578 -60.65625 -6.09765625 C-59.98795166 -6.43925781 -59.31965332 -6.78085937 -58.63110352 -7.1328125 C-38.97689315 -16.75740814 -17.36875433 -12.37262168 0 0 Z " fill="#B6CF19" transform="translate(204.59375,22.84765625)"/>
<path d="M0 0 C2.0625 2 2.0625 2 2.6875 5.9375 C2.4744373 9.16895091 2.2249765 9.82318734 -0.0625 12.3125 C-2.9375 14 -2.9375 14 -6.0625 15.1875 C-10.31143598 17.86617703 -10.71710395 21.31631785 -11.9375 26 C-14.10958413 32.24474187 -14.10958413 32.24474187 -16.9375 34 C-20.375 34.0625 -20.375 34.0625 -23.9375 33 C-27.0985405 29.75790718 -28.19089628 27.05883115 -28.375 22.625 C-27.95272176 14.50636021 -24.79073578 8.57239871 -18.9375 3 C-13.10260237 -1.16778402 -6.93857207 -2.36206709 0 0 Z " fill="#865E23" transform="translate(163.9375,55)"/>
<path d="M0 0 C2.625 2.125 2.625 2.125 4 5 C4.0625 8.0625 4.0625 8.0625 3 11 C0.61677401 13.31702527 -1.71610342 14.84453283 -4.625 16.4375 C-8.7265744 19.13590421 -9.93807241 22.42722374 -10.9375 27.0625 C-11.78439321 30.73468451 -12.78744911 32.79710796 -16 35 C-18.5 35.5 -18.5 35.5 -21 35 C-24.18993781 32.34171849 -25.85424489 30.45130448 -26.2734375 26.27734375 C-26.50407173 18.69302581 -26.13862375 12.8710253 -21 7 C-14.62847852 1.72201461 -8.39171893 -1.33057886 0 0 Z " fill="#875F23" transform="translate(327,54)"/>
<path d="M0 0 C3.30657201 2.72792191 4.87153607 4.1168105 5.5 8.4375 C4.87267051 12.9072226 3.9084821 16.50047835 0.25 19.375 C-3.00953405 20.28042612 -5.63469519 20.36056837 -9 20 C-11.90717073 17.78136971 -12.83981643 16.48055071 -14 13 C-13.49210938 12.64808594 -12.98421875 12.29617187 -12.4609375 11.93359375 C-7.57794293 8.43137105 -3.69696046 4.73322968 0 0 Z " fill="#708805" transform="translate(236,115)"/>
<path d="M0 0 C5.03163018 4.29785078 10.02718443 8.63425542 15 13 C14.42655063 15.86724686 14.1385485 16.8614515 12 19 C7.4629008 19.76658258 3.95546785 19.57726182 0 17.1875 C-3.17243337 13.717651 -3.26827918 10.54389914 -3.234375 5.94140625 C-2.91637069 3.30727051 -1.85261851 1.85261851 0 0 Z " fill="#708904" transform="translate(287,115)"/>
</svg>
